<?xml version="1.0" standalone="no"?>
<!DOCTYPE svg PUBLIC "-//W3C//DTD SVG 20010904//EN"
 "http://www.w3.org/TR/2001/REC-SVG-20010904/DTD/svg10.dtd">
<svg version="1.0" xmlns="http://www.w3.org/2000/svg"
 width="480.000000pt" height="480.000000pt" viewBox="0 0 480.000000 480.000000"
 preserveAspectRatio="xMidYMid meet">
<metadata>
Created by potrace 1.11, written by Peter Selinger 2001-2013
</metadata>
<g transform="translate(0.000000,480.000000) scale(0.100000,-0.100000)"
fill="#000000" stroke="none">
<path d="M2255 4794 c-182 -29 -326 -91 -427 -184 -78 -71 -121 -140 -144
-231 -9 -35 -26 -75 -39 -89 -31 -34 -45 -64 -45 -95 0 -21 -8 -29 -47 -46
-180 -76 -372 -198 -461 -294 -330 -352 -417 -871 -236 -1417 l35 -107 -31
-42 c-136 -189 -109 -438 67 -598 65 -60 66 -63 79 -134 18 -99 19 -94 -26
-102 -78 -13 -163 -98 -186 -184 -48 -186 167 -393 309 -297 l35 24 27 -56
c15 -31 36 -67 48 -80 45 -48 119 -12 132 64 10 59 12 61 24 29 7 -16 46 -98
87 -182 l76 -151 -70 -144 c-55 -111 -192 -451 -192 -474 0 -2 15 -4 33 -4
l32 0 58 158 c55 147 178 412 213 457 15 20 16 20 40 -10 38 -47 92 -156 108
-219 23 -89 38 -250 27 -293 -5 -21 -12 -50 -15 -65 l-6 -28 117 0 117 0 99
76 99 76 42 -41 c39 -40 40 -41 21 -55 -11 -7 -31 -23 -45 -35 l-25 -20 368
-1 369 0 -51 63 c-28 34 -89 119 -136 188 -47 70 -92 130 -101 133 -8 3 -48 1
-87 -5 -117 -18 -242 3 -296 50 -24 21 -34 42 -48 101 -16 71 -17 95 -11 228
l2 54 57 -7 c63 -7 84 5 47 29 -13 8 -81 31 -153 51 -71 21 -142 43 -156 51
-82 42 -121 114 -61 114 15 0 55 -9 89 -20 101 -31 290 -68 418 -80 l120 -12
150 61 c154 62 197 71 230 47 18 -13 15 -16 -36 -41 -65 -33 -115 -69 -128
-94 -7 -12 -5 -35 4 -72 8 -30 15 -81 15 -113 0 -57 1 -61 45 -100 24 -23 129
-95 232 -161 329 -211 396 -279 428 -437 5 -24 10 -28 41 -28 l37 0 -5 50 c-8
82 -59 171 -152 263 -45 45 -88 96 -95 114 -13 31 -12 33 53 113 67 82 75 104
57 153 -8 20 -5 29 12 45 19 17 30 19 76 12 l55 -7 125 101 c85 68 126 107
126 121 0 17 -28 37 -79 57 -5 2 1 44 12 93 21 88 50 267 72 450 l11 89 55 58
c153 160 173 383 51 566 l-29 43 26 92 c44 155 59 283 52 447 -9 226 -57 421
-156 629 l-50 103 31 36 c36 40 89 147 89 177 0 11 -9 34 -19 51 -17 28 -18
35 -5 85 17 64 18 106 3 184 -22 119 -51 141 -148 110 -121 -39 -329 -36 -541
6 -126 25 -160 50 -178 130 -45 194 -231 351 -480 405 -71 15 -237 25 -287 18z
m379 -424 c162 -23 321 -77 365 -124 21 -22 21 -22 -86 6 -314 82 -712 83
-1041 2 -57 -14 -122 -32 -144 -40 -51 -18 -59 -12 -27 22 62 67 249 125 464
144 110 10 362 5 469 -10z m1171 -217 c11 -29 18 -180 9 -186 -5 -3 -37 16
-72 42 -34 26 -92 62 -129 81 l-68 35 75 7 c41 5 95 14 120 22 59 19 57 19 65
-1z m-444 -43 c137 -45 250 -100 335 -163 64 -47 134 -124 134 -148 0 -16 -71
-139 -79 -138 -3 0 -26 32 -51 70 -86 134 -276 298 -455 394 -86 46 -56 42
116 -15z m-1623 -1260 c66 -139 202 -249 354 -285 80 -19 168 -19 193 -1 18
12 32 10 120 -20 110 -37 238 -60 396 -72 87 -7 100 -10 79 -19 -139 -60 -144
-63 -128 -79 28 -28 120 -21 253 20 113 35 122 36 151 22 36 -16 154 -124 185
-167 l20 -28 -48 22 c-43 20 -64 22 -203 22 -159 0 -222 -11 -278 -51 -39 -27
-13 -34 36 -9 63 31 146 45 256 44 l91 -2 -110 -7 c-163 -12 -331 -81 -323
-133 2 -12 9 -21 16 -19 9 1 10 -6 6 -23 -10 -40 21 -31 51 14 14 21 36 43 49
49 22 10 25 8 36 -19 7 -16 28 -43 47 -59 83 -73 233 -9 233 100 0 22 3 22 56
16 73 -8 80 -13 55 -40 -12 -12 -18 -25 -15 -29 10 -9 46 12 70 41 l21 26 29
-49 c30 -52 49 -144 60 -295 5 -75 3 -92 -19 -150 -64 -170 -156 -316 -269
-428 -71 -70 -174 -152 -190 -152 -4 0 -22 9 -40 20 -61 37 -131 28 -291 -36
l-139 -57 -88 6 c-106 8 -315 48 -430 82 -109 33 -144 32 -175 -1 -14 -15 -25
-31 -25 -36 0 -24 -141 79 -238 174 -84 84 -153 179 -212 297 l-42 84 17 426
c9 234 17 427 18 427 10 8 262 -44 371 -77 78 -24 159 -43 181 -43 57 1 97 13
92 27 -2 7 -43 29 -92 50 -185 80 -386 120 -492 98 -31 -6 -58 -10 -59 -8 -2
2 -1 35 3 74 5 65 8 72 36 88 48 28 179 158 228 225 41 57 44 59 53 38 4 -13
24 -57 44 -98z m-795 -812 c10 -95 20 -193 23 -218 l5 -45 -31 35 c-70 79 -92
232 -49 345 11 30 24 55 28 55 3 0 15 -78 24 -172z m2986 37 c9 -71 -3 -148
-34 -211 -15 -30 -30 -54 -34 -54 -6 0 2 97 25 320 l7 65 15 -35 c8 -19 17
-57 21 -85z m-400 -713 c1 -37 -2 -43 -16 -38 -10 3 -23 2 -29 -2 -6 -4 -54
-65 -107 -136 l-97 -129 0 -69 c0 -38 -3 -68 -8 -66 -4 2 -44 27 -89 57 l-81
54 57 42 c119 88 231 218 311 362 l45 80 6 -56 c4 -31 7 -75 8 -99z m-2257
-37 c9 -16 35 -52 58 -78 39 -44 41 -49 27 -65 -26 -29 -65 -123 -78 -189 -6
-35 -14 -63 -18 -62 -3 0 -24 37 -46 81 -21 44 -58 100 -82 123 l-43 43 39 59
c37 55 91 176 91 205 1 7 9 -9 19 -37 10 -27 25 -63 33 -80z m106 33 c90 -139
227 -271 370 -357 46 -27 78 -52 72 -56 -6 -4 -41 14 -78 40 -37 26 -117 81
-179 123 -98 67 -112 81 -113 105 0 20 -11 38 -36 60 -44 39 -84 99 -84 127 0
11 2 20 4 20 2 0 21 -28 44 -62z m-334 -5 c19 -71 18 -83 -13 -119 -17 -19
-31 -41 -31 -49 0 -18 21 -65 29 -65 3 0 17 -9 31 -19 24 -19 24 -20 6 -40
-22 -25 -46 -26 -84 -7 -83 43 -125 153 -87 226 17 32 69 75 100 83 36 9 44 7
49 -10z m2374 -257 c-44 -58 -74 -90 -76 -80 -2 8 29 59 69 112 49 64 75 91
77 80 2 -9 -29 -59 -70 -112z m108 10 c-30 -46 -118 -147 -123 -142 -3 3 25
46 63 96 38 50 70 86 72 80 2 -6 -3 -21 -12 -34z m-1914 -100 c54 -37 100 -71
103 -75 2 -5 -1 -13 -8 -19 -16 -14 -171 -92 -174 -88 -2 1 -32 67 -67 147
-74 167 -74 191 3 136 25 -19 90 -64 143 -101z m1938 10 c0 -3 -4 -8 -10 -11
-5 -3 -10 -1 -10 4 0 6 5 11 10 11 6 0 10 -2 10 -4z m60 -61 c0 -1 -27 -23
-60 -49 -33 -26 -60 -42 -60 -36 0 19 92 99 107 93 7 -3 13 -6 13 -8z m129 1
c-28 -28 -184 -146 -192 -146 -26 0 151 148 177 149 11 1 17 -1 15 -3z m-313
-97 c-7 -44 -22 -79 -34 -79 -4 1 -22 21 -40 46 -41 56 -32 74 36 74 l45 0 -7
-41z m-1474 10 c31 -15 148 -198 148 -232 0 -14 5 -38 10 -52 10 -26 40 -158
36 -162 -8 -10 -259 389 -268 426 -2 8 8 17 22 22 14 4 26 7 27 8 1 1 12 -4
25 -10z m928 -11 c0 -17 -20 -47 -20 -31 0 6 -3 18 -6 27 -4 11 -1 16 10 16 9
0 16 -6 16 -12z m-1141 -184 c56 -82 106 -199 115 -264 6 -42 5 -41 -12 15
-32 106 -92 208 -172 294 -29 32 -37 47 -28 52 17 11 41 -13 97 -97z m1375
100 c13 -5 8 -15 -26 -53 -24 -25 -55 -62 -69 -81 -29 -38 -50 -35 -30 4 15
27 99 136 105 136 3 0 12 -3 20 -6z m86 -246 c23 -43 39 -78 37 -78 -3 0 -42
23 -86 51 -88 56 -86 51 -37 107 25 28 31 23 86 -80z m-960 -202 c-5 -5 -11
-8 -12 -5 -2 2 -14 17 -28 33 l-25 29 37 -24 c23 -15 33 -28 28 -33z m260 -36
c0 -3 -33 -38 -73 -78 l-73 -73 -45 40 -44 39 40 42 40 41 77 -3 c43 -2 78 -5
78 -8z"/>
<path d="M1535 2256 c-22 -7 -64 -25 -93 -40 l-53 -27 18 -31 c19 -33 71 -70
86 -61 4 3 -1 15 -13 28 -26 28 -19 33 54 41 l56 7 0 -28 c0 -15 9 -43 21 -62
58 -93 202 -82 252 20 16 31 22 35 37 27 20 -11 66 -62 72 -81 3 -8 11 -10 22
-6 12 5 15 13 11 27 -4 14 -2 20 7 18 7 -2 14 7 16 19 8 52 -164 122 -328 133
l-105 7 91 1 c109 2 179 -10 251 -42 29 -14 55 -21 58 -16 10 16 -55 48 -127
65 -81 18 -276 19 -333 1z"/>
<path d="M2320 1853 c-32 -22 -39 -33 -33 -50 7 -18 25 -16 62 4 26 16 34 16
63 4 47 -19 72 -19 76 1 9 45 -117 76 -168 41z"/>
<path d="M2675 1473 c-49 -25 -94 -75 -101 -109 -8 -42 1 -68 37 -108 l29 -34
-22 -7 c-46 -14 -324 -18 -394 -6 -127 22 -217 80 -230 147 -7 36 -29 51 -50
33 -34 -28 4 -113 74 -166 73 -55 154 -75 335 -81 229 -7 359 18 456 88 69 51
91 122 57 189 -34 64 -123 90 -191 54z m120 -68 c14 -13 25 -35 25 -48 0 -31
-33 -73 -72 -93 -29 -15 -32 -15 -56 3 -14 11 -34 31 -44 44 -17 22 -17 29 -7
53 14 30 71 65 107 66 13 0 34 -11 47 -25z"/>
</g>
</svg>
